<?xml version="1.0" encoding="UTF-8" standalone="no"?>
<svg
   xmlns:dc="http://purl.org/dc/elements/1.1/"
   xmlns:cc="http://creativecommons.org/ns#"
   xmlns:rdf="http://www.w3.org/1999/02/22-rdf-syntax-ns#"
   xmlns:svg="http://www.w3.org/2000/svg"
   xmlns="http://www.w3.org/2000/svg"
   xmlns:sodipodi="http://sodipodi.sourceforge.net/DTD/sodipodi-0.dtd"
   xmlns:inkscape="http://www.inkscape.org/namespaces/inkscape"
   width="33.822536mm"
   height="26.979458mm"
   viewBox="0 0 33.822536 26.979458"
   version="1.1"
   id="svg863"
   inkscape:version="1.0 (4035a4fb49, 2020-05-01)"
   sodipodi:docname="burung.svg">
  <defs
     id="defs857" />
  <sodipodi:namedview
     id="base"
     pagecolor="#ffffff"
     bordercolor="#666666"
     borderopacity="1.0"
     inkscape:pageopacity="0.0"
     inkscape:pageshadow="2"
     inkscape:zoom="2.8"
     inkscape:cx="46.925984"
     inkscape:cy="14.701996"
     inkscape:document-units="mm"
     inkscape:current-layer="layer1"
     inkscape:document-rotation="0"
     showgrid="false"
     inkscape:window-width="1366"
     inkscape:window-height="715"
     inkscape:window-x="-8"
     inkscape:window-y="-8"
     inkscape:window-maximized="1" />
  <metadata
     id="metadata860">
    <rdf:RDF>
      <cc:Work
         rdf:about="">
        <dc:format>image/svg+xml</dc:format>
        <dc:type
           rdf:resource="http://purl.org/dc/dcmitype/StillImage" />
        <dc:title />
      </cc:Work>
    </rdf:RDF>
  </metadata>
  <g
     inkscape:label="Layer 1"
     inkscape:groupmode="layer"
     id="layer1"
     transform="translate(-108.64165,-130.50535)">
    <path
       style="fill:#ffffff;fill-opacity:1;stroke-width:0.0846667"
       d="m 112.69133,157.38728 c -0.10477,-0.0753 -0.1905,-0.21176 -0.1905,-0.30329 0,-0.26158 0.6257,-0.87379 1.20633,-1.18032 1.08266,-0.57158 2.06603,-1.39993 2.81234,-2.36899 0.32201,-0.41813 1.10961,-2.01194 1.03238,-2.08917 -0.0171,-0.0171 -0.44175,0.10638 -0.94371,0.27435 -1.93313,0.64686 -2.63209,0.37238 -2.03786,-0.80026 0.11909,-0.23501 0.21661,-0.43808 0.21672,-0.45127 8e-5,-0.0132 -0.33327,-0.0122 -0.74084,0.002 -1.46722,0.052 -2.01678,-0.43993 -1.08274,-0.9693 l 0.31938,-0.18102 -0.70562,-0.3671 c -1.49128,-0.77585 -1.83377,-1.49086 -0.88661,-1.85096 l 0.24779,-0.0942 -0.72996,-0.42359 c -1.81138,-1.05111 -2.20333,-1.88708 -1.09242,-2.32994 l 0.44957,-0.17922 -0.42175,-0.30959 c -0.59087,-0.43374 -1.33452,-1.25971 -1.45047,-1.61103 -0.17227,-0.522 0.1405,-0.77591 0.81996,-0.66565 0.153,0.0248 0.27818,0.02 0.27818,-0.0108 0,-0.0308 -0.15544,-0.25255 -0.34543,-0.4929 -0.66018,-0.83519 -0.92251,-1.54886 -0.75542,-2.05514 0.0873,-0.26465 0.35841,-0.55088 0.52169,-0.55088 0.0333,0 0.27729,0.33337 0.54226,0.74083 0.60055,0.92347 1.4324,1.98932 1.89975,2.43417 l 0.35581,0.33866 -0.3478,-0.54301 c -0.4559,-0.7118 -0.57353,-1.13487 -0.39239,-1.41132 0.14787,-0.22568 0.37724,-0.25731 0.79922,-0.11021 0.14902,0.052 0.28777,0.0776 0.30831,0.0571 0.0206,-0.0205 -0.0955,-0.30713 -0.25798,-0.63686 -0.55972,-1.13616 -0.59562,-1.85878 -0.11252,-2.26528 0.14433,-0.12145 0.32045,-0.20947 0.39139,-0.19561 0.0748,0.0146 0.2824,0.39889 0.49398,0.9142 0.85983,2.09417 1.6959,3.37183 3.15833,4.82646 1.12887,1.12285 1.78475,1.62649 3.45728,2.65474 l 1.03814,0.63825 0.60566,-0.90273 c 1.07122,-1.59663 1.67584,-2.05622 2.77905,-2.11249 0.54601,-0.0279 0.68211,-0.005 0.97117,0.16348 0.40523,0.23611 0.68874,0.63388 0.76235,1.06958 0.0299,0.1771 0.20139,0.54334 0.38104,0.81387 0.17965,0.27052 0.30669,0.54383 0.28231,0.60735 -0.0558,0.14546 0.007,0.15803 -0.69003,-0.13851 -0.73504,-0.31279 -0.85482,-0.31489 -1.13737,-0.02 -0.36291,0.37878 -0.49177,0.88466 -0.57663,2.26363 -0.14115,2.29361 -0.47459,3.37181 -1.29155,4.17632 -0.48902,0.48157 -0.97825,0.72854 -1.75438,0.88562 l -0.52489,0.10624 -0.14871,0.57159 c -0.29428,1.13111 -0.89965,2.23159 -1.56495,2.84483 -0.41602,0.38348 -0.80912,0.46423 -0.97154,0.19957 -0.0835,-0.13609 -0.10281,-0.13092 -0.23679,0.0635 -0.0802,0.11641 -0.31311,0.39264 -0.51753,0.61383 -0.4402,0.47632 -0.81489,0.55507 -0.9064,0.1905 -0.064,-0.25512 -0.13022,-0.2643 -0.32821,-0.0455 -0.0827,0.0914 -0.27724,0.20802 -0.43231,0.2592 -0.34894,0.11515 -0.60363,0.001 -0.68035,-0.30448 -0.0294,-0.1171 -0.0775,-0.20151 -0.10683,-0.18757 -0.0294,0.0139 -0.25027,0.12894 -0.4909,0.25557 -0.57667,0.30346 -1.02782,0.37143 -1.277,0.1924 z m 0.97782,-0.38084 c 0.20019,-0.0909 0.53041,-0.28472 0.73383,-0.4308 0.20342,-0.14609 0.40747,-0.24236 0.45346,-0.21394 0.046,0.0284 0.0633,0.20338 0.0384,0.38879 -0.0352,0.26214 -0.0144,0.34893 0.0934,0.39029 0.19194,0.0736 0.51894,-0.16007 0.7837,-0.56016 0.30953,-0.46772 0.45426,-0.44168 0.45426,0.0817 0,0.23008 0.0345,0.43968 0.0767,0.46576 0.12641,0.0781 0.81024,-0.75104 1.07413,-1.30243 0.30312,-0.63333 0.48241,-0.65325 0.49287,-0.0548 0.004,0.24216 0.0497,0.43022 0.10887,0.45015 0.17348,0.0584 0.81238,-0.60908 1.19407,-1.24756 0.35446,-0.59292 0.86333,-1.92884 0.86333,-2.26646 0,-0.24457 0.15312,-0.32904 0.69214,-0.3818 1.32416,-0.12962 2.22581,-1.02935 2.65023,-2.64458 0.0732,-0.27848 0.16914,-1.13498 0.21327,-1.90333 0.0864,-1.50373 0.16001,-1.88525 0.4664,-2.41611 0.18922,-0.32784 0.38933,-0.48039 0.7675,-0.58509 0.0964,-0.0267 0.26291,-0.16713 0.3701,-0.31212 0.17482,-0.23646 0.18491,-0.29693 0.0979,-0.58727 -0.18352,-0.61254 -0.86092,-0.92181 -1.65703,-0.75654 -0.87164,0.18095 -1.38124,0.66926 -2.53069,2.42497 -0.30901,0.472 -0.56184,0.89349 -0.56184,0.93666 0,0.0432 0.11276,0.18652 0.25058,0.31856 0.83032,0.7955 0.81804,2.07583 -0.0271,2.81782 -0.31168,0.27367 -1.72092,1.09181 -2.34811,1.36322 -0.36199,0.15664 -0.38662,0.19251 -0.82797,1.20568 -0.80964,1.85859 -1.76723,2.87909 -3.76065,4.0077 -0.50979,0.28863 -0.99147,0.70754 -0.99147,0.86229 0,0.1699 0.39707,0.14564 0.82965,-0.0507 z m 2.81102,-5.55861 c 0.98191,-0.32065 3.22378,-1.38605 3.7929,-1.8025 0.4716,-0.34508 0.86402,-0.96145 0.86294,-1.35539 -0.001,-0.41122 -0.33937,-1.10491 -0.67744,-1.38938 -0.40769,-0.34305 -1.22481,-0.72908 -2.7084,-1.27951 -1.74042,-0.64573 -3.06056,-1.27873 -4.10012,-1.966 -1.19274,-0.78853 -2.92916,-2.53627 -3.76947,-3.79404 -0.76387,-1.14335 -0.75324,-1.13124 -0.85331,-0.97296 -0.26752,0.42314 0.0865,1.24176 1.00885,2.33296 0.32468,0.3841 0.51017,0.67074 0.46396,0.71695 -0.0462,0.0462 -0.26248,0.0276 -0.54095,-0.0465 -0.92101,-0.24509 -1.17965,-0.11668 -0.84749,0.42077 0.23892,0.38658 1.11179,1.175 1.67469,1.51267 0.24448,0.14665 0.4445,0.31298 0.4445,0.3696 0,0.0584 -0.22151,0.14654 -0.51145,0.20358 -0.55757,0.1097 -0.92788,0.34141 -0.92788,0.5806 0,0.2935 0.80341,0.91564 2.159,1.67186 0.32597,0.18184 0.59267,0.38305 0.59267,0.44713 0,0.0717 -0.17414,0.15573 -0.45227,0.21837 -0.24875,0.056 -0.51313,0.16272 -0.58752,0.23711 -0.12388,0.12388 -0.10619,0.16289 0.21068,0.46432 0.19026,0.18098 0.77123,0.54662 1.29105,0.81251 0.51982,0.2659 0.93235,0.52179 0.91673,0.56865 -0.0156,0.0469 -0.2301,0.15348 -0.47663,0.23694 -0.54142,0.18328 -0.70256,0.31556 -0.52106,0.42773 0.23166,0.14318 0.9706,0.18468 1.63726,0.0919 0.36355,-0.0506 0.69635,-0.0919 0.73955,-0.0919 0.13997,0 0.0839,0.17333 -0.18017,0.55718 -0.85935,1.24902 -0.53553,1.44609 1.35938,0.8273 z m 3.84055,-5.23665 c 0.0292,-0.0762 -0.0263,-0.17354 -0.13911,-0.24387 -2.68384,-1.67277 -3.33871,-2.14968 -4.37394,-3.18533 -1.4881,-1.48873 -2.70765,-3.4602 -3.42455,-5.53599 -0.0531,-0.1537 -0.0614,-0.154 -0.22272,-0.008 -0.35895,0.32485 -0.1629,1.19622 0.55057,2.44703 0.21039,0.36884 0.38253,0.70221 0.38253,0.74083 0,0.12225 -0.22306,0.0768 -0.69009,-0.14063 -0.59167,-0.27543 -0.91858,-0.28257 -0.91858,-0.0201 0,0.30917 0.58874,1.2176 1.2065,1.86164 0.31433,0.32769 0.5715,0.66243 0.5715,0.74385 0,0.19192 1.21026,0.98152 2.32834,1.51907 0.46566,0.22388 1.47531,0.64265 2.24366,0.93059 0.76835,0.28794 1.60655,0.63095 1.86267,0.76225 0.56115,0.28766 0.56213,0.28786 0.62322,0.12867 z m 5.38811,-1.29557 c 0,-0.0876 -0.1833,-0.27093 -0.27093,-0.27093 -0.10938,0 -0.0776,0.23592 0.0381,0.28259 0.16326,0.0659 0.23283,0.0624 0.23283,-0.0117 z m 8.71351,6.1402 c -0.15741,-0.10608 -0.42701,-0.39443 -0.59912,-0.64077 -0.29321,-0.4197 -0.31882,-0.43688 -0.40663,-0.2728 -0.1972,0.36846 -0.80897,0.0973 -1.36369,-0.60449 -0.45345,-0.57366 -0.98353,-1.67784 -1.15989,-2.41608 -0.14332,-0.59997 -0.15297,-0.61433 -0.44284,-0.6588 -1.74756,-0.26809 -2.72972,-1.29042 -3.08885,-3.21519 -0.0608,-0.32597 -0.13506,-1.08309 -0.16498,-1.6825 -0.0635,-1.27313 -0.15215,-1.7472 -0.41345,-2.21217 -0.31136,-0.55405 -0.51122,-0.59779 -1.27492,-0.27902 -0.85609,0.35733 -0.93088,0.27377 -0.43715,-0.48841 0.20921,-0.32298 0.3812,-0.67485 0.3822,-0.78194 0.007,-0.73799 0.95503,-1.37429 1.85846,-1.2472 0.95885,0.1349 1.72074,0.7699 2.67302,2.22784 0.2794,0.42776 0.53775,0.77834 0.57411,0.77907 0.11536,0.002 2.22442,-1.33618 2.93154,-1.86048 2.20889,-1.63779 3.83066,-3.82982 4.87094,-6.58369 0.12753,-0.33761 0.24512,-0.61383 0.2613,-0.61383 0.1821,0 0.49746,0.22048 0.63275,0.44239 0.28954,0.47488 0.1751,1.17025 -0.36945,2.24486 -0.27365,0.54001 -0.27372,0.54522 -0.006,0.44332 0.11945,-0.0454 0.36792,-0.0826 0.55215,-0.0826 0.2687,0 0.35277,0.0391 0.42492,0.19742 0.12552,0.27547 -0.0248,0.784 -0.39379,1.33233 -0.16333,0.24271 -0.28196,0.45629 -0.26363,0.47463 0.10009,0.10009 1.69337,-1.92053 2.26288,-2.86982 0.15985,-0.26643 0.35066,-0.48551 0.42404,-0.48683 0.0734,-0.001 0.22577,0.096 0.33866,0.21626 0.16495,0.17571 0.20406,0.30459 0.19916,0.65617 -0.007,0.49993 -0.17245,0.86418 -0.74698,1.64424 -0.21445,0.29117 -0.38992,0.54276 -0.38992,0.55907 0,0.0163 0.18138,0.0122 0.40306,-0.009 0.31461,-0.0302 0.44833,-0.002 0.60939,0.12835 0.19186,0.15536 0.19938,0.19011 0.10725,0.49566 -0.12408,0.41145 -0.71032,1.08642 -1.38243,1.59166 -0.42455,0.31914 -0.48763,0.39687 -0.359,0.44238 0.76935,0.27215 1.02261,0.5305 0.92125,0.93975 -0.0831,0.33574 -0.74821,0.92532 -1.63684,1.45107 l -0.77009,0.45562 0.3552,0.17938 c 0.29643,0.1497 0.3597,0.22616 0.3823,0.46203 0.0226,0.23561 -0.0273,0.33422 -0.2999,0.59266 -0.17985,0.17051 -0.6386,0.48148 -1.01944,0.69103 -0.38085,0.20955 -0.69357,0.40495 -0.69493,0.43422 -0.001,0.0293 0.11327,0.10118 0.25475,0.15978 0.2974,0.12319 0.45111,0.36023 0.37964,0.58542 -0.0846,0.26641 -0.53153,0.38716 -1.42004,0.38362 -0.45403,-0.002 -0.8255,0.004 -0.8255,0.0125 0,0.009 0.0948,0.18162 0.21065,0.38428 0.24092,0.42145 0.27344,0.84596 0.0796,1.03976 -0.24577,0.24578 -1.06484,0.17119 -2.13178,-0.19413 -0.52388,-0.17937 -0.9525,-0.31254 -0.9525,-0.29593 0,0.11811 0.74985,1.66657 0.94668,1.95493 0.64435,0.94398 1.70973,1.88002 2.77979,2.44232 1.36929,0.71954 1.80014,1.64469 0.76585,1.64446 -0.16573,-3e-5 -0.54287,-0.11433 -0.83809,-0.254 -0.61898,-0.29282 -0.60623,-0.28988 -0.60623,-0.14005 0,0.1734 -0.2853,0.39412 -0.50943,0.39412 -0.21907,0 -0.75888,-0.33062 -0.76031,-0.46567 -5.1e-4,-0.0466 -0.0764,0.0392 -0.16867,0.1905 -0.19891,0.32625 -0.3046,0.33894 -0.68542,0.0823 z m 1.73751,-0.51403 c -0.006,-0.46056 0.10129,-0.50191 0.50532,-0.19432 0.56853,0.43281 1.41684,0.74888 1.52785,0.56926 0.13942,-0.22558 -0.34359,-0.62526 -1.62863,-1.34764 -1.24592,-0.7004 -2.37979,-2.01862 -3.06102,-3.5587 l -0.46047,-1.04098 -0.59786,-0.29959 c -1.59749,-0.80049 -2.40036,-1.39318 -2.63954,-1.94858 -0.15176,-0.35238 -0.15017,-1.05139 0.003,-1.41849 0.0663,-0.15868 0.27346,-0.45439 0.46036,-0.65715 l 0.3398,-0.36865 -0.79497,-1.19131 c -0.44405,-0.66544 -0.98385,-1.36113 -1.22284,-1.57601 -1.03358,-0.92927 -2.46704,-0.85141 -2.79819,0.15198 -0.0772,0.23398 -0.0623,0.31644 0.10337,0.5724 0.13294,0.20535 0.27961,0.31592 0.46812,0.35291 0.1701,0.0334 0.36274,0.16443 0.50645,0.34454 0.40391,0.5062 0.53584,1.05651 0.61863,2.58056 0.10983,2.02177 0.37929,2.9361 1.11085,3.76929 0.34865,0.39709 1.17547,0.78423 1.84611,0.86438 l 0.54656,0.0653 0.10697,0.52872 c 0.15237,0.75314 0.56606,1.69591 1.04082,2.37194 0.64549,0.91915 1.1322,1.12458 1.1017,0.46501 -0.0325,-0.7025 0.0762,-0.71244 0.41659,-0.0381 0.30756,0.60929 0.90151,1.37144 1.06876,1.37144 0.0934,0 0.12503,-0.10585 0.12503,-0.41833 0,-0.45465 0.14514,-0.64411 0.2911,-0.38001 0.16468,0.29799 0.80189,0.8997 0.91234,0.86152 0.0689,-0.0238 0.10694,-0.18239 0.10358,-0.43141 z m 0.21084,-5.08537 c 0.12438,-0.14987 -0.0355,-0.56385 -0.42961,-1.1127 -0.32709,-0.45546 -0.26495,-0.56236 0.26642,-0.45833 0.82922,0.16235 2.032,0.0659 2.032,-0.16294 0,-0.0439 -0.18098,-0.1434 -0.40217,-0.2212 -0.52656,-0.18519 -0.65831,-0.25605 -0.64602,-0.34746 0.006,-0.0415 0.35628,-0.2534 0.77935,-0.47091 1.40164,-0.72062 1.89998,-1.15987 1.58076,-1.3933 -0.0819,-0.0599 -0.3534,-0.1513 -0.60339,-0.2032 -0.26085,-0.0541 -0.45453,-0.14008 -0.45453,-0.20166 0,-0.059 0.34572,-0.29444 0.76827,-0.52316 1.00853,-0.54592 1.87402,-1.20099 1.97745,-1.4967 0.11442,-0.32712 -0.0656,-0.48102 -0.76989,-0.65832 -0.62261,-0.15673 -0.73806,-0.26906 -0.43581,-0.42402 0.8108,-0.41569 2.10065,-1.67261 2.10065,-2.04703 0,-0.16191 -0.0348,-0.16977 -0.52917,-0.11942 -0.29104,0.0296 -0.65299,0.0773 -0.80433,0.10586 -0.39673,0.0749 -0.35345,-0.0648 0.21525,-0.69489 0.8999,-0.99707 1.33724,-1.99679 1.0336,-2.36266 -0.0907,-0.10925 -0.18736,-0.007 -0.65021,0.69053 -1.27548,1.92104 -2.76499,3.3738 -4.57621,4.46331 -0.79673,0.47926 -2.11821,1.07644 -3.57893,1.61732 -0.72179,0.26727 -1.56854,0.61942 -1.88167,0.78256 -0.89928,0.46852 -1.41811,1.15116 -1.41986,1.86814 -0.002,0.66126 0.66905,1.2996 2.17173,2.06707 2.20614,1.12674 3.95766,1.66298 4.25632,1.30311 z m -5.00483,-5.58747 c 0.22113,-0.11206 1.02949,-0.43938 1.79635,-0.72737 1.75568,-0.65936 2.90066,-1.19969 3.88286,-1.83237 0.54376,-0.35027 0.77092,-0.54599 0.77245,-0.66552 0.001,-0.0931 0.23182,-0.39581 0.51252,-0.67262 0.52605,-0.51875 1.14669,-1.38386 1.23324,-1.71902 0.12995,-0.5032 -0.10576,-0.53714 -0.97878,-0.14094 -0.25263,0.11465 -0.49116,0.17662 -0.53006,0.13772 -0.0389,-0.0389 0.1018,-0.37323 0.31269,-0.74294 0.46326,-0.81216 0.71643,-1.46367 0.73299,-1.88626 0.0123,-0.31515 -0.12844,-0.69094 -0.25887,-0.69094 -0.0383,0 -0.21304,0.35242 -0.38833,0.78317 -0.7364,1.80967 -1.69135,3.29895 -2.96367,4.62196 -0.97685,1.01577 -2.00073,1.81227 -3.60513,2.80453 -1.33953,0.82844 -1.20997,0.73261 -1.1411,0.84404 0.0809,0.13095 0.17401,0.114 0.62284,-0.11344 z m -5.63045,-1.37313 c -0.059,-0.15368 -0.1118,-0.14691 -0.24738,0.0317 -0.16943,0.2232 -0.14071,0.28195 0.0871,0.17815 0.1206,-0.055 0.18657,-0.14133 0.16028,-0.20985 z"
       id="path1440" />
  </g>
</svg>
